<?xml version="1.0" standalone="no"?>
<svg xmlns:xlink="http://www.w3.org/1999/xlink" id="wave" style="transform:rotate(180deg); transition: 0.3s" viewBox="0 0 1440 340" version="1.1" xmlns="http://www.w3.org/2000/svg"><defs><linearGradient id="sw-gradient-0" x1="0" x2="0" y1="1" y2="0"><stop stop-color="rgba(151, 71, 255, 1)" offset="0%"/><stop stop-color="rgba(87.484, 137.392, 221.168, 1)" offset="100%"/></linearGradient></defs><path style="transform:translate(0, 0px); opacity:1" fill="url(#sw-gradient-0)" d="M0,136L48,158.7C96,181,192,227,288,249.3C384,272,480,272,576,277.7C672,283,768,295,864,260.7C960,227,1056,147,1152,147.3C1248,147,1344,227,1440,243.7C1536,261,1632,215,1728,192.7C1824,170,1920,170,2016,181.3C2112,193,2208,215,2304,238C2400,261,2496,283,2592,266.3C2688,249,2784,193,2880,164.3C2976,136,3072,136,3168,130.3C3264,125,3360,113,3456,113.3C3552,113,3648,125,3744,141.7C3840,159,3936,181,4032,192.7C4128,204,4224,204,4320,204C4416,204,4512,204,4608,215.3C4704,227,4800,249,4896,260.7C4992,272,5088,272,5184,238C5280,204,5376,136,5472,119C5568,102,5664,136,5760,175.7C5856,215,5952,261,6048,272C6144,283,6240,261,6336,226.7C6432,193,6528,147,6624,136C6720,125,6816,147,6864,158.7L6912,170L6912,340L6864,340C6816,340,6720,340,6624,340C6528,340,6432,340,6336,340C6240,340,6144,340,6048,340C5952,340,5856,340,5760,340C5664,340,5568,340,5472,340C5376,340,5280,340,5184,340C5088,340,4992,340,4896,340C4800,340,4704,340,4608,340C4512,340,4416,340,4320,340C4224,340,4128,340,4032,340C3936,340,3840,340,3744,340C3648,340,3552,340,3456,340C3360,340,3264,340,3168,340C3072,340,2976,340,2880,340C2784,340,2688,340,2592,340C2496,340,2400,340,2304,340C2208,340,2112,340,2016,340C1920,340,1824,340,1728,340C1632,340,1536,340,1440,340C1344,340,1248,340,1152,340C1056,340,960,340,864,340C768,340,672,340,576,340C480,340,384,340,288,340C192,340,96,340,48,340L0,340Z"/><defs><linearGradient id="sw-gradient-1" x1="0" x2="0" y1="1" y2="0"><stop stop-color="rgba(54, 21, 64, 1)" offset="0%"/><stop stop-color="rgba(153.718, 103.938, 168.802, 1)" offset="100%"/></linearGradient></defs><path style="transform:translate(0, 50px); opacity:0.9" fill="url(#sw-gradient-1)" d="M0,34L48,79.3C96,125,192,215,288,243.7C384,272,480,238,576,221C672,204,768,204,864,170C960,136,1056,68,1152,39.7C1248,11,1344,23,1440,56.7C1536,91,1632,147,1728,187C1824,227,1920,249,2016,232.3C2112,215,2208,159,2304,113.3C2400,68,2496,34,2592,56.7C2688,79,2784,159,2880,158.7C2976,159,3072,79,3168,68C3264,57,3360,113,3456,147.3C3552,181,3648,193,3744,164.3C3840,136,3936,68,4032,34C4128,0,4224,0,4320,51C4416,102,4512,204,4608,204C4704,204,4800,102,4896,51C4992,0,5088,0,5184,22.7C5280,45,5376,91,5472,130.3C5568,170,5664,204,5760,226.7C5856,249,5952,261,6048,272C6144,283,6240,295,6336,283.3C6432,272,6528,238,6624,232.3C6720,227,6816,249,6864,260.7L6912,272L6912,340L6864,340C6816,340,6720,340,6624,340C6528,340,6432,340,6336,340C6240,340,6144,340,6048,340C5952,340,5856,340,5760,340C5664,340,5568,340,5472,340C5376,340,5280,340,5184,340C5088,340,4992,340,4896,340C4800,340,4704,340,4608,340C4512,340,4416,340,4320,340C4224,340,4128,340,4032,340C3936,340,3840,340,3744,340C3648,340,3552,340,3456,340C3360,340,3264,340,3168,340C3072,340,2976,340,2880,340C2784,340,2688,340,2592,340C2496,340,2400,340,2304,340C2208,340,2112,340,2016,340C1920,340,1824,340,1728,340C1632,340,1536,340,1440,340C1344,340,1248,340,1152,340C1056,340,960,340,864,340C768,340,672,340,576,340C480,340,384,340,288,340C192,340,96,340,48,340L0,340Z"/><defs><linearGradient id="sw-gradient-2" x1="0" x2="0" y1="1" y2="0"><stop stop-color="rgba(174, 67, 204, 1)" offset="0%"/><stop stop-color="rgba(24, 78, 119, 1)" offset="100%"/></linearGradient></defs><path style="transform:translate(0, 100px); opacity:0.8" fill="url(#sw-gradient-2)" d="M0,306L48,272C96,238,192,170,288,119C384,68,480,34,576,17C672,0,768,0,864,28.3C960,57,1056,113,1152,141.7C1248,170,1344,170,1440,164.3C1536,159,1632,147,1728,141.7C1824,136,1920,136,2016,113.3C2112,91,2208,45,2304,28.3C2400,11,2496,23,2592,28.3C2688,34,2784,34,2880,39.7C2976,45,3072,57,3168,51C3264,45,3360,23,3456,51C3552,79,3648,159,3744,192.7C3840,227,3936,215,4032,181.3C4128,147,4224,91,4320,62.3C4416,34,4512,34,4608,56.7C4704,79,4800,125,4896,147.3C4992,170,5088,170,5184,175.7C5280,181,5376,193,5472,170C5568,147,5664,91,5760,68C5856,45,5952,57,6048,73.7C6144,91,6240,113,6336,147.3C6432,181,6528,227,6624,243.7C6720,261,6816,249,6864,243.7L6912,238L6912,340L6864,340C6816,340,6720,340,6624,340C6528,340,6432,340,6336,340C6240,340,6144,340,6048,340C5952,340,5856,340,5760,340C5664,340,5568,340,5472,340C5376,340,5280,340,5184,340C5088,340,4992,340,4896,340C4800,340,4704,340,4608,340C4512,340,4416,340,4320,340C4224,340,4128,340,4032,340C3936,340,3840,340,3744,340C3648,340,3552,340,3456,340C3360,340,3264,340,3168,340C3072,340,2976,340,2880,340C2784,340,2688,340,2592,340C2496,340,2400,340,2304,340C2208,340,2112,340,2016,340C1920,340,1824,340,1728,340C1632,340,1536,340,1440,340C1344,340,1248,340,1152,340C1056,340,960,340,864,340C768,340,672,340,576,340C480,340,384,340,288,340C192,340,96,340,48,340L0,340Z"/><defs><linearGradient id="sw-gradient-3" x1="0" x2="0" y1="1" y2="0"><stop stop-color="rgba(166, 78, 255, 1)" offset="0%"/><stop stop-color="rgba(223.445, 211.24, 184.259, 1)" offset="100%"/></linearGradient></defs><path style="transform:translate(0, 150px); opacity:0.7" fill="url(#sw-gradient-3)" d="M0,136L48,153C96,170,192,204,288,181.3C384,159,480,79,576,73.7C672,68,768,136,864,141.7C960,147,1056,91,1152,73.7C1248,57,1344,79,1440,119C1536,159,1632,215,1728,221C1824,227,1920,181,2016,187C2112,193,2208,249,2304,260.7C2400,272,2496,238,2592,209.7C2688,181,2784,159,2880,130.3C2976,102,3072,68,3168,56.7C3264,45,3360,57,3456,96.3C3552,136,3648,204,3744,238C3840,272,3936,272,4032,243.7C4128,215,4224,159,4320,164.3C4416,170,4512,238,4608,266.3C4704,295,4800,283,4896,232.3C4992,181,5088,91,5184,56.7C5280,23,5376,45,5472,73.7C5568,102,5664,136,5760,141.7C5856,147,5952,125,6048,124.7C6144,125,6240,147,6336,170C6432,193,6528,215,6624,187C6720,159,6816,79,6864,39.7L6912,0L6912,340L6864,340C6816,340,6720,340,6624,340C6528,340,6432,340,6336,340C6240,340,6144,340,6048,340C5952,340,5856,340,5760,340C5664,340,5568,340,5472,340C5376,340,5280,340,5184,340C5088,340,4992,340,4896,340C4800,340,4704,340,4608,340C4512,340,4416,340,4320,340C4224,340,4128,340,4032,340C3936,340,3840,340,3744,340C3648,340,3552,340,3456,340C3360,340,3264,340,3168,340C3072,340,2976,340,2880,340C2784,340,2688,340,2592,340C2496,340,2400,340,2304,340C2208,340,2112,340,2016,340C1920,340,1824,340,1728,340C1632,340,1536,340,1440,340C1344,340,1248,340,1152,340C1056,340,960,340,864,340C768,340,672,340,576,340C480,340,384,340,288,340C192,340,96,340,48,340L0,340Z"/></svg>