<?xml version="1.0" standalone="no"?>
<svg xmlns:xlink="http://www.w3.org/1999/xlink" id="wave" style="transform:rotate(0deg); transition: 0.3s" viewBox="0 0 1440 380" version="1.1" xmlns="http://www.w3.org/2000/svg"><defs><linearGradient id="sw-gradient-0" x1="0" x2="0" y1="1" y2="0"><stop stop-color="rgba(24, 78, 119, 0.79)" offset="0%"/><stop stop-color="rgba(0, 115, 118, 0.31)" offset="100%"/></linearGradient></defs><path style="transform:translate(0, 0px); opacity:1" fill="url(#sw-gradient-0)" d="M0,76L80,88.7C160,101,320,127,480,126.7C640,127,800,101,960,76C1120,51,1280,25,1440,25.3C1600,25,1760,51,1920,95C2080,139,2240,203,2400,221.7C2560,241,2720,215,2880,209C3040,203,3200,215,3360,209C3520,203,3680,177,3840,139.3C4000,101,4160,51,4320,82.3C4480,114,4640,228,4800,247C4960,266,5120,190,5280,145.7C5440,101,5600,89,5760,126.7C5920,165,6080,253,6240,278.7C6400,304,6560,266,6720,215.3C6880,165,7040,101,7200,88.7C7360,76,7520,114,7680,126.7C7840,139,8000,127,8160,145.7C8320,165,8480,215,8640,247C8800,279,8960,291,9120,297.7C9280,304,9440,304,9600,278.7C9760,253,9920,203,10080,202.7C10240,203,10400,253,10560,285C10720,317,10880,329,11040,285C11200,241,11360,139,11440,88.7L11520,38L11520,380L11440,380C11360,380,11200,380,11040,380C10880,380,10720,380,10560,380C10400,380,10240,380,10080,380C9920,380,9760,380,9600,380C9440,380,9280,380,9120,380C8960,380,8800,380,8640,380C8480,380,8320,380,8160,380C8000,380,7840,380,7680,380C7520,380,7360,380,7200,380C7040,380,6880,380,6720,380C6560,380,6400,380,6240,380C6080,380,5920,380,5760,380C5600,380,5440,380,5280,380C5120,380,4960,380,4800,380C4640,380,4480,380,4320,380C4160,380,4000,380,3840,380C3680,380,3520,380,3360,380C3200,380,3040,380,2880,380C2720,380,2560,380,2400,380C2240,380,2080,380,1920,380C1760,380,1600,380,1440,380C1280,380,1120,380,960,380C800,380,640,380,480,380C320,380,160,380,80,380L0,380Z"/><defs><linearGradient id="sw-gradient-1" x1="0" x2="0" y1="1" y2="0"><stop stop-color="rgba(0, 115, 118, 0)" offset="0%"/><stop stop-color="rgba(24, 78, 119, 0.6)" offset="100%"/></linearGradient></defs><path style="transform:translate(0, 50px); opacity:0.9" fill="url(#sw-gradient-1)" d="M0,228L80,190C160,152,320,76,480,50.7C640,25,800,51,960,88.7C1120,127,1280,177,1440,202.7C1600,228,1760,228,1920,190C2080,152,2240,76,2400,63.3C2560,51,2720,101,2880,107.7C3040,114,3200,76,3360,57C3520,38,3680,38,3840,50.7C4000,63,4160,89,4320,114C4480,139,4640,165,4800,190C4960,215,5120,241,5280,266C5440,291,5600,317,5760,310.3C5920,304,6080,266,6240,266C6400,266,6560,304,6720,285C6880,266,7040,190,7200,164.7C7360,139,7520,165,7680,171C7840,177,8000,165,8160,183.7C8320,203,8480,253,8640,247C8800,241,8960,177,9120,171C9280,165,9440,215,9600,234.3C9760,253,9920,241,10080,209C10240,177,10400,127,10560,88.7C10720,51,10880,25,11040,69.7C11200,114,11360,228,11440,285L11520,342L11520,380L11440,380C11360,380,11200,380,11040,380C10880,380,10720,380,10560,380C10400,380,10240,380,10080,380C9920,380,9760,380,9600,380C9440,380,9280,380,9120,380C8960,380,8800,380,8640,380C8480,380,8320,380,8160,380C8000,380,7840,380,7680,380C7520,380,7360,380,7200,380C7040,380,6880,380,6720,380C6560,380,6400,380,6240,380C6080,380,5920,380,5760,380C5600,380,5440,380,5280,380C5120,380,4960,380,4800,380C4640,380,4480,380,4320,380C4160,380,4000,380,3840,380C3680,380,3520,380,3360,380C3200,380,3040,380,2880,380C2720,380,2560,380,2400,380C2240,380,2080,380,1920,380C1760,380,1600,380,1440,380C1280,380,1120,380,960,380C800,380,640,380,480,380C320,380,160,380,80,380L0,380Z"/><defs><linearGradient id="sw-gradient-2" x1="0" x2="0" y1="1" y2="0"><stop stop-color="rgba(0, 115, 118, 0.4)" offset="0%"/><stop stop-color="rgba(24, 78, 119, 0.9)" offset="100%"/></linearGradient></defs><path style="transform:translate(0, 100px); opacity:0.8" fill="url(#sw-gradient-2)" d="M0,190L80,196.3C160,203,320,215,480,196.3C640,177,800,127,960,139.3C1120,152,1280,228,1440,253.3C1600,279,1760,253,1920,221.7C2080,190,2240,152,2400,126.7C2560,101,2720,89,2880,76C3040,63,3200,51,3360,69.7C3520,89,3680,139,3840,152C4000,165,4160,139,4320,158.3C4480,177,4640,241,4800,259.7C4960,279,5120,253,5280,247C5440,241,5600,253,5760,221.7C5920,190,6080,114,6240,95C6400,76,6560,114,6720,164.7C6880,215,7040,279,7200,285C7360,291,7520,241,7680,221.7C7840,203,8000,215,8160,190C8320,165,8480,101,8640,76C8800,51,8960,63,9120,88.7C9280,114,9440,152,9600,158.3C9760,165,9920,139,10080,133C10240,127,10400,139,10560,152C10720,165,10880,177,11040,190C11200,203,11360,215,11440,221.7L11520,228L11520,380L11440,380C11360,380,11200,380,11040,380C10880,380,10720,380,10560,380C10400,380,10240,380,10080,380C9920,380,9760,380,9600,380C9440,380,9280,380,9120,380C8960,380,8800,380,8640,380C8480,380,8320,380,8160,380C8000,380,7840,380,7680,380C7520,380,7360,380,7200,380C7040,380,6880,380,6720,380C6560,380,6400,380,6240,380C6080,380,5920,380,5760,380C5600,380,5440,380,5280,380C5120,380,4960,380,4800,380C4640,380,4480,380,4320,380C4160,380,4000,380,3840,380C3680,380,3520,380,3360,380C3200,380,3040,380,2880,380C2720,380,2560,380,2400,380C2240,380,2080,380,1920,380C1760,380,1600,380,1440,380C1280,380,1120,380,960,380C800,380,640,380,480,380C320,380,160,380,80,380L0,380Z"/></svg>