<?xml version="1.0" standalone="no"?>
<svg xmlns:xlink="http://www.w3.org/1999/xlink" id="wave" style="transform:rotate(180deg); transition: 0.3s" viewBox="0 0 1440 380" version="1.1" xmlns="http://www.w3.org/2000/svg"><defs><linearGradient id="sw-gradient-0" x1="0" x2="0" y1="1" y2="0"><stop stop-color="rgba(24, 78, 119, 1)" offset="0%"/><stop stop-color="rgba(204.193, 226.3, 230.276, 1)" offset="100%"/></linearGradient></defs><path style="transform:translate(0, 0px); opacity:1" fill="url(#sw-gradient-0)" d="M0,152L80,164.7C160,177,320,203,480,234.3C640,266,800,304,960,266C1120,228,1280,114,1440,69.7C1600,25,1760,51,1920,76C2080,101,2240,127,2400,133C2560,139,2720,127,2880,158.3C3040,190,3200,266,3360,285C3520,304,3680,266,3840,234.3C4000,203,4160,177,4320,152C4480,127,4640,101,4800,101.3C4960,101,5120,127,5280,120.3C5440,114,5600,76,5760,50.7C5920,25,6080,13,6240,6.3C6400,0,6560,0,6720,25.3C6880,51,7040,101,7200,152C7360,203,7520,253,7680,278.7C7840,304,8000,304,8160,272.3C8320,241,8480,177,8640,183.7C8800,190,8960,266,9120,278.7C9280,291,9440,241,9600,215.3C9760,190,9920,190,10080,215.3C10240,241,10400,291,10560,259.7C10720,228,10880,114,11040,69.7C11200,25,11360,51,11440,63.3L11520,76L11520,380L11440,380C11360,380,11200,380,11040,380C10880,380,10720,380,10560,380C10400,380,10240,380,10080,380C9920,380,9760,380,9600,380C9440,380,9280,380,9120,380C8960,380,8800,380,8640,380C8480,380,8320,380,8160,380C8000,380,7840,380,7680,380C7520,380,7360,380,7200,380C7040,380,6880,380,6720,380C6560,380,6400,380,6240,380C6080,380,5920,380,5760,380C5600,380,5440,380,5280,380C5120,380,4960,380,4800,380C4640,380,4480,380,4320,380C4160,380,4000,380,3840,380C3680,380,3520,380,3360,380C3200,380,3040,380,2880,380C2720,380,2560,380,2400,380C2240,380,2080,380,1920,380C1760,380,1600,380,1440,380C1280,380,1120,380,960,380C800,380,640,380,480,380C320,380,160,380,80,380L0,380Z"/><defs><linearGradient id="sw-gradient-1" x1="0" x2="0" y1="1" y2="0"><stop stop-color="rgba(48, 108, 153, 0.5019607843137255)" offset="0%"/><stop stop-color="rgba(0, 115, 118, 1)" offset="100%"/></linearGradient></defs><path style="transform:translate(0, 50px); opacity:0.9" fill="url(#sw-gradient-1)" d="M0,190L80,158.3C160,127,320,63,480,69.7C640,76,800,152,960,202.7C1120,253,1280,279,1440,272.3C1600,266,1760,228,1920,215.3C2080,203,2240,215,2400,183.7C2560,152,2720,76,2880,63.3C3040,51,3200,101,3360,101.3C3520,101,3680,51,3840,44.3C4000,38,4160,76,4320,120.3C4480,165,4640,215,4800,247C4960,279,5120,291,5280,266C5440,241,5600,177,5760,139.3C5920,101,6080,89,6240,101.3C6400,114,6560,152,6720,139.3C6880,127,7040,63,7200,82.3C7360,101,7520,203,7680,209C7840,215,8000,127,8160,88.7C8320,51,8480,63,8640,95C8800,127,8960,177,9120,209C9280,241,9440,253,9600,259.7C9760,266,9920,266,10080,259.7C10240,253,10400,241,10560,221.7C10720,203,10880,177,11040,164.7C11200,152,11360,152,11440,152L11520,152L11520,380L11440,380C11360,380,11200,380,11040,380C10880,380,10720,380,10560,380C10400,380,10240,380,10080,380C9920,380,9760,380,9600,380C9440,380,9280,380,9120,380C8960,380,8800,380,8640,380C8480,380,8320,380,8160,380C8000,380,7840,380,7680,380C7520,380,7360,380,7200,380C7040,380,6880,380,6720,380C6560,380,6400,380,6240,380C6080,380,5920,380,5760,380C5600,380,5440,380,5280,380C5120,380,4960,380,4800,380C4640,380,4480,380,4320,380C4160,380,4000,380,3840,380C3680,380,3520,380,3360,380C3200,380,3040,380,2880,380C2720,380,2560,380,2400,380C2240,380,2080,380,1920,380C1760,380,1600,380,1440,380C1280,380,1120,380,960,380C800,380,640,380,480,380C320,380,160,380,80,380L0,380Z"/></svg>