<svg width="116" height="116" viewBox="0 0 116 116" fill="none" xmlns="http://www.w3.org/2000/svg">
<path d="M21.1809 0C9.44762 0 0 9.44762 0 21.1809V94.8192C0 106.552 9.44762 116 21.1809 116H61.0922V70.6513H49.1007V54.3243H61.0922V40.3753C61.0922 29.4162 68.1774 19.3539 84.4988 19.3539C91.1071 19.3539 95.9937 19.9883 95.9937 19.9883L95.6094 35.2351C95.6094 35.2351 90.6257 35.188 85.1875 35.188C79.3018 35.188 78.358 37.8999 78.358 42.4018V54.3244H96.077L95.3049 70.6514H78.358V116H94.8191C106.552 116 116 106.553 116 94.8193V21.181C116 9.44774 106.552 0.000116 94.8191 0.000116H21.1808L21.1809 0Z" fill="#1E6092"/>
</svg>
