<svg width="116" height="116" viewBox="0 0 116 116" fill="none" xmlns="http://www.w3.org/2000/svg">
<path d="M58.0189 0C33.8045 0 26.7227 0.0249867 25.3461 0.139212C20.3769 0.552385 17.2847 1.33501 13.916 3.01269C11.3199 4.30218 9.27241 5.79692 7.25171 7.89224C3.57163 11.7134 1.34128 16.4145 0.533896 22.0026C0.141355 24.7154 0.0271607 25.2687 0.00396507 39.1257C-0.00495633 43.7446 0.00396507 49.8235 0.00396507 57.9772C0.00396507 82.1787 0.0307293 89.2553 0.146707 90.6295C0.54817 95.4663 1.30649 98.5093 2.91234 101.838C5.9813 108.209 11.8427 112.993 18.7478 114.777C21.1388 115.393 23.7795 115.732 27.1696 115.893C28.606 115.955 43.246 116 57.8949 116C72.5439 116 87.1928 115.982 88.5935 115.911C92.5189 115.726 94.7983 115.42 97.3186 114.769C100.742 113.89 103.933 112.275 106.668 110.035C109.404 107.796 111.617 104.986 113.154 101.802C114.729 98.5539 115.527 95.3949 115.888 90.8107C115.967 89.8112 116 73.8759 116 57.9621C116 42.0455 115.964 26.1397 115.886 25.1402C115.52 20.482 114.722 17.3497 113.096 14.039C111.762 11.3288 110.281 9.30488 108.131 7.23544C104.295 3.56953 99.6025 1.33857 94.0096 0.53186C91.3002 0.140104 90.7605 0.0240943 76.8966 0H58.0189Z" fill="url(#paint0_radial_8_7)"/>
<path d="M58.0189 0C33.8045 0 26.7227 0.0249867 25.3461 0.139212C20.3769 0.552385 17.2847 1.33501 13.916 3.01269C11.3199 4.30218 9.27241 5.79692 7.25171 7.89224C3.57163 11.7134 1.34128 16.4145 0.533896 22.0026C0.141355 24.7154 0.0271607 25.2687 0.00396507 39.1257C-0.00495633 43.7446 0.00396507 49.8235 0.00396507 57.9772C0.00396507 82.1787 0.0307293 89.2553 0.146707 90.6295C0.54817 95.4663 1.30649 98.5093 2.91234 101.838C5.9813 108.209 11.8427 112.993 18.7478 114.777C21.1388 115.393 23.7795 115.732 27.1696 115.893C28.606 115.955 43.246 116 57.8949 116C72.5439 116 87.1928 115.982 88.5935 115.911C92.5189 115.726 94.7983 115.42 97.3186 114.769C100.742 113.89 103.933 112.275 106.668 110.035C109.404 107.796 111.617 104.986 113.154 101.802C114.729 98.5539 115.527 95.3949 115.888 90.8107C115.967 89.8112 116 73.8759 116 57.9621C116 42.0455 115.964 26.1397 115.886 25.1402C115.52 20.482 114.722 17.3497 113.096 14.039C111.762 11.3288 110.281 9.30488 108.131 7.23544C104.295 3.56953 99.6025 1.33857 94.0096 0.53186C91.3002 0.140104 90.7605 0.0240943 76.8966 0H58.0189Z" fill="url(#paint1_radial_8_7)"/>
<path d="M57.9921 15.1704C46.3622 15.1704 44.9027 15.2213 40.3349 15.4292C35.7761 15.638 32.6643 16.36 29.9415 17.4192C27.125 18.5133 24.7358 19.9768 22.3556 22.3586C19.9736 24.7394 18.5105 27.1292 17.4132 29.9456C16.3515 32.67 15.6289 35.7836 15.4237 40.3419C15.2203 44.9109 15.1667 46.3717 15.1667 58.0048C15.1667 69.6379 15.2185 71.0934 15.4255 75.6624C15.6351 80.2225 16.3569 83.3351 17.4149 86.0586C18.5096 88.8759 19.9727 91.2657 22.3538 93.6466C24.7332 96.0293 27.1223 97.4963 29.937 98.5904C32.6616 99.6496 35.7743 100.372 40.3322 100.58C44.9 100.788 46.3586 100.839 57.9877 100.839C69.6185 100.839 71.0736 100.788 75.6413 100.58C80.2002 100.372 83.3155 99.6496 86.0401 98.5904C88.8557 97.4963 91.2413 96.0293 93.6206 93.6466C96.0026 91.2657 97.4657 88.8759 98.5631 86.0595C99.6158 83.3351 100.338 80.2216 100.553 75.6633C100.758 71.0943 100.811 69.6379 100.811 58.0048C100.811 46.3717 100.758 44.9118 100.553 40.3428C100.338 35.7827 99.6158 32.67 98.5631 29.9465C97.4657 27.1292 96.0026 24.7394 93.6206 22.3586C91.2386 19.9759 88.8566 18.5124 86.0374 17.4192C83.3075 16.36 80.1939 15.638 75.6351 15.4292C71.0673 15.2213 69.6131 15.1704 57.9796 15.1704H57.9921ZM54.1506 22.8895C55.2907 22.8877 56.5629 22.8895 57.9921 22.8895C69.4258 22.8895 70.781 22.9306 75.2961 23.1358C79.4713 23.3268 81.7373 24.0246 83.2468 24.6109C85.2452 25.3873 86.67 26.3154 88.1679 27.8146C89.6667 29.3138 90.5945 30.7416 91.3724 32.7405C91.9586 34.2487 92.6571 36.5153 92.8471 40.6917C93.0523 45.2071 93.0969 46.5636 93.0969 57.995C93.0969 69.4264 93.0523 70.7828 92.8471 75.2983C92.6562 79.4746 91.9586 81.7413 91.3724 83.2494C90.5963 85.2484 89.6667 86.6717 88.1679 88.17C86.6691 89.6692 85.2461 90.5973 83.2468 91.3737C81.7391 91.9627 79.4713 92.6587 75.2961 92.8497C70.7818 93.0549 69.4258 93.0996 57.9921 93.0996C46.5576 93.0996 45.2024 93.0549 40.6882 92.8497C36.513 92.6569 34.2469 91.9591 32.7365 91.3728C30.7382 90.5964 29.3107 89.6683 27.8119 88.1691C26.3131 86.6699 25.3853 85.2457 24.6074 83.2459C24.0212 81.7377 23.3227 79.4711 23.1327 75.2947C22.9275 70.7793 22.8864 69.4228 22.8864 57.9843C22.8864 46.5457 22.9275 45.1964 23.1327 40.681C23.3236 36.5046 24.0212 34.238 24.6074 32.728C25.3835 30.7291 26.3131 29.3013 27.8119 27.8021C29.3107 26.3029 30.7382 25.3748 32.7365 24.5967C34.246 24.0077 36.513 23.3116 40.6882 23.1198C44.6386 22.9413 46.1695 22.8877 54.1506 22.8788V22.8895ZM80.8505 30.0018C79.8341 30.0018 78.8405 30.3033 77.9954 30.8682C77.1503 31.4331 76.4917 32.236 76.1028 33.1753C75.7139 34.1147 75.6123 35.1483 75.8107 36.1454C76.0091 37.1425 76.4987 38.0584 77.2175 38.7772C77.9364 39.496 78.8522 39.9854 79.8491 40.1835C80.846 40.3817 81.8793 40.2796 82.8183 39.8903C83.7572 39.501 84.5597 38.8419 85.1241 37.9963C85.6885 37.1508 85.9896 36.1569 85.9893 35.1402C85.9893 32.3024 83.6875 30 80.8505 30V30.0018ZM57.9921 36.0076C45.8474 36.0076 36.0009 45.8568 36.0009 58.0048C36.0009 70.1528 45.8474 79.9976 57.9921 79.9976C70.1368 79.9976 79.9807 70.1528 79.9807 58.0048C79.9807 45.8568 70.1359 36.0076 57.9912 36.0076H57.9921ZM57.9921 43.7267C65.8751 43.7267 72.2664 50.1188 72.2664 58.0048C72.2664 65.8899 65.8751 72.2829 57.9921 72.2829C50.1083 72.2829 43.7179 65.8899 43.7179 58.0048C43.7179 50.1188 50.1083 43.7267 57.9921 43.7267V43.7267Z" fill="white"/>
<defs>
<radialGradient id="paint0_radial_8_7" cx="0" cy="0" r="1" gradientUnits="userSpaceOnUse" gradientTransform="translate(30.8126 124.934) rotate(-90) scale(114.965 106.926)">
<stop stop-color="#FFDD55"/>
<stop offset="0.1" stop-color="#FFDD55"/>
<stop offset="0.5" stop-color="#FF543E"/>
<stop offset="1" stop-color="#C837AB"/>
</radialGradient>
<radialGradient id="paint1_radial_8_7" cx="0" cy="0" r="1" gradientUnits="userSpaceOnUse" gradientTransform="translate(-19.4306 8.35644) rotate(78.6806) scale(51.3896 211.83)">
<stop stop-color="#3771C8"/>
<stop offset="0.128" stop-color="#3771C8"/>
<stop offset="1" stop-color="#6600FF" stop-opacity="0"/>
</radialGradient>
</defs>
</svg>
