<svg width="105" height="119" viewBox="0 0 105 119" fill="none" xmlns="http://www.w3.org/2000/svg">
<path d="M77.8149 42.8486C85.4758 48.3246 94.8609 51.5466 104.997 51.5466V32.0429C103.079 32.0434 101.165 31.8431 99.2886 31.4455V46.7977C89.1532 46.7977 79.7692 43.5761 72.1067 38.1005V77.9023C72.1067 97.8134 55.9646 113.953 36.054 113.953C28.6248 113.953 21.7194 111.707 15.9834 107.855C22.5303 114.549 31.6604 118.702 41.7609 118.702C61.6732 118.702 77.8157 102.562 77.8157 82.65V42.8486H77.8149ZM84.8572 23.1717C80.9419 18.8947 78.371 13.3673 77.8149 7.25648V4.74805H72.4053C73.767 12.5146 78.4116 19.1499 84.8568 23.1717H84.8572ZM28.5768 92.5766C26.3894 89.7089 25.207 86.2002 25.2123 82.5929C25.2123 73.4865 32.5955 66.1028 41.7047 66.1028C43.402 66.1019 45.0893 66.3626 46.7074 66.8755V46.9356C44.8165 46.6767 42.9085 46.5663 41.0013 46.6069V62.127C39.3825 61.6136 37.6943 61.3532 35.9961 61.3547C26.8874 61.3547 19.5046 68.7376 19.5046 77.8452C19.5046 84.2852 23.1947 89.8605 28.5768 92.5766Z" fill="#FF004F"/>
<path d="M72.1067 38.1001C79.7696 43.5757 89.1528 46.7973 99.2886 46.7973V31.4451C93.6309 30.2399 88.6225 27.2838 84.8568 23.1717C78.4112 19.1495 73.767 12.5142 72.4053 4.74805H58.1962V82.6491C58.1638 91.7309 50.7933 99.0843 41.7039 99.0843C36.348 99.0843 31.5894 96.5315 28.576 92.5762C23.1947 89.8605 19.5042 84.2848 19.5042 77.8456C19.5042 68.7389 26.887 61.3551 35.9957 61.3551C37.7409 61.3551 39.423 61.6268 41.0009 62.1274V46.6073C21.4397 47.0115 5.70815 62.9936 5.70815 82.6495C5.70815 92.4617 9.62555 101.357 15.9838 107.856C21.7198 111.707 28.6248 113.954 36.0544 113.954C55.9654 113.954 72.1071 97.813 72.1071 77.9023V38.1005H72.1067V38.1001Z" fill="black"/>
<path d="M99.2886 31.4447V27.2945C94.1866 27.3022 89.1855 25.8735 84.8568 23.1718C88.6885 27.3664 93.734 30.259 99.2886 31.4455V31.4447ZM72.4049 4.74769C72.2751 4.00563 72.1755 3.25859 72.1063 2.50844V0H52.4869V77.9019C52.4557 86.9828 45.0852 94.3362 35.9953 94.3362C33.4184 94.3401 30.8767 93.7374 28.5756 92.5771C31.589 96.5316 36.3476 99.0839 41.7035 99.0839C50.7925 99.0839 58.1638 91.7314 58.1958 82.6496V4.7481H72.4049V4.74769ZM41.0017 46.607V42.188C39.3623 41.9638 37.7095 41.8516 36.0548 41.8523C16.1417 41.8523 0 57.9928 0 77.9019C0 90.3842 6.34389 101.385 15.9842 107.855C9.62596 101.356 5.70855 92.461 5.70855 82.6492C5.70855 62.9937 21.4397 47.0116 41.0017 46.6074V46.607Z" fill="#00F2EA"/>
</svg>
