<svg width="129" height="129" viewBox="0 0 129 129" fill="none" xmlns="http://www.w3.org/2000/svg">
<path d="M127.081 26.5365C122.593 28.5252 117.772 29.869 112.703 30.4764C117.933 27.347 121.846 22.4217 123.711 16.6196C118.797 19.5382 113.42 21.5925 107.812 22.6934C104.041 18.6668 99.0454 15.9979 93.602 15.101C88.1585 14.2042 82.5713 15.1296 77.7076 17.7336C72.844 20.3376 68.9762 24.4744 66.7046 29.5019C64.433 34.5294 63.8848 40.1661 65.145 45.5371C55.1888 45.0372 45.449 42.4494 36.5577 37.9417C27.6663 33.434 19.8221 27.1071 13.5343 19.3716C11.3843 23.0804 10.148 27.3804 10.148 31.9599C10.1456 36.0825 11.1608 40.1419 13.1036 43.778C15.0464 47.4142 17.8566 50.5146 21.285 52.8041C17.309 52.6776 13.4207 51.6032 9.94375 49.6705V49.993C9.94335 55.7751 11.9434 61.3793 15.6046 65.8546C19.2658 70.3299 24.3626 73.4007 30.0301 74.546C26.3417 75.5442 22.4747 75.6912 18.7211 74.976C20.3202 79.9512 23.435 84.3018 27.6295 87.4187C31.824 90.5357 36.8882 92.2629 42.1131 92.3587C33.2435 99.3216 22.2895 103.098 11.0134 103.082C9.01592 103.082 7.02016 102.966 5.03638 102.732C16.4823 110.092 29.8062 113.998 43.4139 113.982C89.4776 113.982 114.659 75.8306 114.659 42.7421C114.659 41.6671 114.633 40.5814 114.584 39.5064C119.482 35.9641 123.711 31.5777 127.07 26.5526L127.081 26.5365Z" fill="#20AFFF"/>
</svg>
